<svg fill="none" height="24" viewBox="0 0 24 24" width="24" xmlns="http://www.w3.org/2000/svg"><g stroke="#141b34" stroke-width="1.5"><path d="m14 14 2.5 2.5" stroke-linejoin="round"/><path d="m16.4333 18.5252c-.5777-.5777-.5777-1.5143 0-2.0919.5776-.5777 1.5142-.5777 2.0919 0l3.0415 3.0415c.5777.5777.5777 1.5143 0 2.0919-.5776.5777-1.5142.5777-2.0919 0z" stroke-linecap="round"/><path d="m16 9c0-3.86599-3.134-7-7-7-3.86599 0-7 3.13401-7 7 0 3.866 3.13401 7 7 7 3.866 0 7-3.134 7-7z" stroke-linejoin="round"/></g></svg>